# xmcd
#
# Track frame offsets:
#	150
#	21440
#	39965
#	58818
#	81163
#	104183
#	120908
#	143458
#	165385
#	186635
#
# Disc length: 2777 seconds
#
# Revision: 1
# Processed by: cddbd v1.5.2PL0 Copyright (c) Steve Scherf et al.
# Submitted via: EasyCDDAExtractor 16.0.9.1
#
DISCID=840ad70a
DTITLE=Lưu Bích and Tô Chấn Phong - KH19: Mối Tình Đầu
DYEAR=1994
DGENRE=Pop
TTITLE0=Lưu Bích - Đêm Nay Em Thấy Cô Đơn (Tonight's So Cold)
TTITLE1=Tô Chấn Phong - Những Buổi Chiều Vàng
TTITLE2=Lưu Bích and Tô Chấn Phong - Mãi Yêu
TTITLE3=Lưu Bích - Chuyện Tình Không Suy Tư
TTITLE4=Tô Chấn Phong - Tình Nồng
TTITLE5=Lưu Bích - Vòng Tay Người Ấy
TTITLE6=Tô Chấn Phong - Rồi Mai Tôi Đưa Em
TTITLE7=Lưu Bích - Nếu Vắng Anh
TTITLE8=Lưu Bích and Tô Chấn Phong - Phù Du
TTITLE9=Lưu Bích - Yêu Em Lầm Lỡ
EXTD=YEAR: 1994\n
EXTT0=
EXTT1=
EXTT2=
EXTT3=
EXTT4=
EXTT5=
EXTT6=
EXTT7=
EXTT8=
EXTT9=
PLAYORDER=
